{"title":"Wake Wood (2011) DvdRip Xvid {1337x}-X","uid":6371393,"size":735731712,"categoryP":"video","categoryS":"movies","magnet":"?xt=urn:btih:9f78e6bee60d8baf76a630515431f58480bf7c22&amp;dn=Wake+Wood+%282011%29+DvdRip+Xvid+%7B1337x%7D-X&amp;tr=udp%3A%2F%2Ftracker.openbittorrent.com%3A80&amp;tr=udp%3A%2F%2Fopen.demonii.com%3A1337&amp;tr=udp%3A%2F%2Ftracker.coppersurfer.tk%3A6969&amp;tr=udp%3A%2F%2Fexodus.desync.com%3A6969","seeders":0,"leechers":1,"uploader":"hiest","files":-1,"time":1304689326,"description":"Plot:\n\nIt is about a young couple whose daughter is torn to death by an angry Alsatian dog not very far from their home. To get over the terrible loss of their daughter they decide to start a new life in Ireland in a small village called Wake Wood. Soon after they arrive there the girl's mother Louise finds that the local villagers are involved in some rather unusual behavior.\n\n\n\n\n Video\n ID : 0\n Format : MPEG-4 Visual\n Format profile : Advanced Simple@L5\n Format settings, BVOP : Yes\n Format settings, QPel : No\n Format settings, GMC : No warppoints\n Format settings, Matrix : Default (H.263)\n Muxing mode : Packed bitstream\n Codec ID : XVID\n Codec ID/Hint : XviD\n Duration : 1h 26mn\n Bit rate : 1 017 Kbps\n Width : 656 pixels\n Height : 352 pixels\n Display aspect ratio : 1.864\n Frame rate : 25.000 fps\n Color space : YUV\n Chroma subsampling : 4:2:0\n Bit depth : 8 bits\n Scan type : Progressive\n Bits/(Pixel*Frame) : 0.176\n Stream size : 629 MiB (90%)\n Writing library : XviD 57\n\n Audio\n ID : 1\n Format : MPEG Audio\n Format version : Version 1\n Format profile : Layer 3\n Mode : Joint stereo\n Mode extension : MS Stereo\n Codec ID : 55\n Codec ID/Hint : MP3\n Duration : 1h 26mn\n Bit rate mode : Variable\n Bit rate : 104 Kbps\n Nominal bit rate : 112 Kbps\n Channel(s) : 2 channels\n Sampling rate : 48.0 KHz\n Stream size : 64.3 MiB (9%)\n Alignment : Aligned on interleaves\n Interleave, duration : 24 ms (0.60 video frame)\n Interleave, preload duration : 495 ms\n Writing library : LAME3.97 \n Encoding settings : -m j -V 4 -q 2 -lowpass 16 --abr 112\n\n\n\n IMDB &lt;a href=&quot;\nhttp://www.imdb.com/title/tt1296899/&quot; rel=&quot;nofollow&quot; target=&quot;_NEW&quot;&gt;\nhttp://www.imdb.com/title/tt1296899/&lt;/a&gt;\n\n\n\n==================================    &lt;a href=&quot;\nhttp://thepiratebay.se/user/hiest&quot; rel=&quot;nofollow&quot; target=&quot;_NEW&quot;&gt;\nhttp://thepiratebay.se/user/hiest&lt;/a&gt;\n==================================\n\n\n\nScreens:\n &lt;a href=&quot;\nhttp://www.freeimagehosting.net/uploads/th.2e71771426.jpg&quot; rel=&quot;nofollow&quot; target=&quot;_NEW&quot;&gt;\nhttp://www.freeimagehosting.net/uploads/th.2e71771426.jpg&lt;/a&gt;","torrent":{"xt":"urn:btih:9f78e6bee60d8baf76a630515431f58480bf7c22","amp;dn":"Wake+Wood+%282011%29+DvdRip+Xvid+%7B1337x%7D-X","amp;tr":["udp%3A%2F%2Ftracker.openbittorrent.com%3A80","udp%3A%2F%2Fopen.demonii.com%3A1337","udp%3A%2F%2Ftracker.coppersurfer.tk%3A6969","udp%3A%2F%2Fexodus.desync.com%3A6969"],"infoHash":"9f78e6bee60d8baf76a630515431f58480bf7c22","infoHashBuffer":{"type":"Buffer","data":[159,120,230,190,230,13,139,175,118,166,48,81,84,49,245,132,128,191,124,34]},"announce":[],"urlList":[]}}